<svg xmlns="http://www.w3.org/2000/svg" viewBox="0 0 400 520" role="img" aria-label="Ledger App Mockup">
  <!-- Tablet body -->
  <rect x="40" y="20" width="320" height="480" rx="28" fill="#1e293b"/>
  <rect x="52" y="36" width="296" height="448" rx="18" fill="#f8fafc"/>
  <!-- Status bar -->
  <rect x="52" y="36" width="296" height="36" rx="18" fill="#0b5fff"/>
  <circle cx="200" cy="54" r="6" fill="rgba(255,255,255,0.4)"/>
  <!-- Note rows -->
  <rect x="72" y="90" width="256" height="48" rx="10" fill="#ffffff" stroke="#e2e8f0" stroke-width="1.5"/>
  <rect x="90" y="105" width="140" height="8" rx="4" fill="#0f172a"/>
  <rect x="90" y="120" width="100" height="6" rx="3" fill="#94a3b8"/>
  <rect x="72" y="150" width="256" height="48" rx="10" fill="#ffffff" stroke="#e2e8f0" stroke-width="1.5"/>
  <rect x="90" y="165" width="180" height="8" rx="4" fill="#0f172a"/>
  <rect x="90" y="180" width="120" height="6" rx="3" fill="#94a3b8"/>
  <rect x="72" y="210" width="256" height="48" rx="10" fill="#ffffff" stroke="#e2e8f0" stroke-width="1.5"/>
  <rect x="90" y="225" width="110" height="8" rx="4" fill="#0f172a"/>
  <rect x="90" y="240" width="160" height="6" rx="3" fill="#94a3b8"/>
  <!-- Checklist item 1 -->
  <rect x="72" y="278" width="256" height="36" rx="8" fill="#f0fdf4"/>
  <rect x="88" y="292" width="14" height="14" rx="4" fill="#22c55e"/>
  <line x1="92" y1="299" x2="96" y2="303" stroke="white" stroke-width="2" stroke-linecap="round"/>
  <line x1="96" y1="303" x2="102" y2="294" stroke="white" stroke-width="2" stroke-linecap="round"/>
  <rect x="114" y="296" width="100" height="7" rx="3" fill="#15803d"/>
  <!-- Checklist item 2 -->
  <rect x="72" y="322" width="256" height="36" rx="8" fill="#f0fdf4"/>
  <rect x="88" y="336" width="14" height="14" rx="4" fill="#22c55e"/>
  <line x1="92" y1="343" x2="96" y2="347" stroke="white" stroke-width="2" stroke-linecap="round"/>
  <line x1="96" y1="347" x2="102" y2="338" stroke="white" stroke-width="2" stroke-linecap="round"/>
  <rect x="114" y="340" width="80" height="7" rx="3" fill="#15803d"/>
  <!-- Empty checklist item -->
  <rect x="72" y="366" width="256" height="36" rx="8" fill="#f8fafc" stroke="#e2e8f0" stroke-width="1.5"/>
  <rect x="88" y="380" width="14" height="14" rx="4" stroke="#cbd5e1" stroke-width="1.5" fill="none"/>
  <rect x="114" y="384" width="130" height="7" rx="3" fill="#94a3b8"/>
  <!-- Fab button -->
  <circle cx="300" cy="452" r="22" fill="#0b5fff"/>
  <line x1="300" y1="441" x2="300" y2="463" stroke="white" stroke-width="2.5" stroke-linecap="round"/>
  <line x1="289" y1="452" x2="311" y2="452" stroke="white" stroke-width="2.5" stroke-linecap="round"/>
</svg>
